Coordinates
version=1
nRows=8
nColumns=40
inDegrees=yes

Units are S.I. units (second, meters, Newtons, ...)
Angles are in degrees.

endheader
time	pelvis_tilt	pelvis_list	pelvis_rotation	pelvis_tx	pelvis_ty	pelvis_tz	hip_flexion_r	hip_adduction_r	hip_rotation_r	knee_angle_r	knee_angle_r_beta	ankle_angle_r	subtalar_angle_r	mtp_angle_r	hip_flexion_l	hip_adduction_l	hip_rotation_l	knee_angle_l	knee_angle_l_beta	ankle_angle_l	subtalar_angle_l	mtp_angle_l	lumbar_extension	lumbar_bending	lumbar_rotation	arm_flex_r	arm_add_r	arm_rot_r	elbow_flex_r	pro_sup_r	wrist_flex_r	wrist_dev_r	arm_flex_l	arm_add_l	arm_rot_l	elbow_flex_l	pro_sup_l	wrist_flex_l	wrist_dev_l
     29.46500000	     -6.18853427	     -6.05108895	      3.99468520	      0.86819836	      0.91606346	      0.49868657	     -2.43575915	      6.21760835	    -20.80931987	      6.28996057	      6.28996057	     16.26633971	      7.69731019	     -3.37136426	     33.55288847	     -7.06523220	     -5.73386649	     14.64165519	     14.64165519	      2.30802695	     -6.56318119	      6.51986043	     -6.97526993	      6.40371997	      5.67207416	     41.07928573	    -15.43501087	     -9.47340628	     76.31314172	     45.12698828	      0.00000000	      0.00000000	    -13.76870683	     -5.30965078	      5.35710865	     23.67082065	     44.28222621	      0.00000000	      0.00000000
     29.47707143	     -6.17012325	     -5.95981419	      3.70278678	      0.87090522	      0.91476302	      0.49729576	     -3.03249034	      5.95054082	    -20.49346783	      6.59824162	      6.59824162	     16.80902900	      7.74802902	     -3.39537692	     33.28579584	     -6.99622906	     -5.98502669	     15.66856834	     15.66856834	      1.73821429	     -7.65295322	      6.48268974	     -6.76208165	      6.21905192	      5.73564259	     40.80751188	    -15.37359129	     -9.48413122	     76.36720311	     45.12581396	      0.00000000	      0.00000000	    -13.95504140	     -5.34113897	      5.37889371	     23.66149524	     44.27998506	      0.00000000	      0.00000000
     29.48914286	     -6.25474391	     -5.90355468	      3.44717799	      0.87342230	      0.91336594	      0.49568462	     -3.21841734	      5.58940805	    -20.25238452	      7.51637317	      7.51637317	     17.82676606	      7.71431894	     -2.29638539	     33.01545785	     -6.73281840	     -5.20570883	     16.34503219	     16.34503219	      0.24700001	    -10.27025696	      5.51913958	     -6.48027601	      6.06836737	      5.95151748	     40.19032827	    -15.55365771	     -9.78498698	     76.97922362	     45.12607595	      0.00000000	      0.00000000	    -13.98669421	     -5.44030543	      5.56394463	     24.03177142	     44.29307601	      0.00000000	      0.00000000
     29.50121429	     -6.17211444	     -5.75140118	      3.15249784	      0.87626861	      0.91234892	      0.49415012	     -3.81631974	      5.21117008	    -19.90087909	      7.96567813	      7.96567813	     18.31135634	      7.69782435	     -2.32560456	     32.74248627	     -6.64184853	     -5.32904755	     17.50166677	     17.50166677	     -0.10284058	    -11.03625294	      5.32791475	     -6.34044422	      5.79520110	      5.95122068	     39.66668343	    -15.46976142	     -9.77042036	     76.85069017	     45.12920643	      0.00000000	      0.00000000	    -13.95299421	     -5.54268354	      5.57486159	     24.03209575	     44.29866657	      0.00000000	      0.00000000
     29.51328571	     -6.20122671	     -5.65060084	      2.85619808	      0.87888707	      0.91133935	      0.49250656	     -3.92585710	      4.75868366	    -19.41986234	      9.13051010	      9.13051010	     19.27208160	      7.29787048	     -1.17684230	     32.56912883	     -6.49141504	     -4.93804947	     18.47085644	     18.47085644	     -1.06515853	    -12.68368468	      3.98929198	     -6.12096641	      5.58355517	      6.17993559	     38.84113542	    -15.63974324	    -10.05462735	     77.00471064	     45.14944779	      0.00000000	      0.00000000	    -13.62155815	     -5.64667041	      5.77237766	     23.96752872	     44.35436194	      0.00000000	      0.00000000
     29.52535714	     -6.08717971	     -5.47119512	      2.57794333	      0.88159196	      0.91085433	      0.49078318	     -4.26513222	      4.24046485	    -19.03667843	     10.10093319	     10.10093319	     19.62352767	      6.99494987	     -1.35293382	     32.35050780	     -6.37159948	     -4.91964200	     19.69453579	     19.69453579	     -1.03332298	    -13.37587126	      3.72445848	     -6.07953867	      5.27365368	      6.12935389	     38.12673532	    -15.59578467	    -10.01824369	     76.68755362	     45.15779497	      0.00000000	      0.00000000	    -13.33286468	     -5.77635800	      5.76938162	     24.01381713	     44.37029454	      0.00000000	      0.00000000
     29.53742857	     -5.88772917	     -5.26677379	      2.37011992	      0.88430053	      0.91095377	      0.48885775	     -4.68070378	      3.70008976	    -18.69512741	     11.05628767	     11.05628767	     19.77450164	      6.63986998	     -1.51250596	     31.95242654	     -6.18754144	     -4.84362998	     20.72652117	     20.72652117	     -0.81511576	    -13.91712882	      3.45666442	     -6.11816445	      4.97839351	      5.99134798	     37.05837934	    -15.36238357	     -9.90219461	     76.28049868	     45.16356118	      0.00000000	      0.00000000	    -12.91026428	     -5.86581080	      5.76543552	     24.09691035	     44.38384523	      0.00000000	      0.00000000
     29.54950000	     -5.99798275	     -5.08757854	      2.06272140	      0.88640083	      0.91073987	      0.48694529	     -4.00822128	      2.95643247	    -18.03739447	     13.39383616	     13.39383616	     20.04801523	      5.31806784	     -2.08397694	     31.99113755	     -6.05335328	     -4.79042505	     21.87960452	     21.87960452	     -0.39834154	    -14.54374535	      3.09914505	     -5.89874214	      4.67956859	      6.08651107	     36.14412246	    -15.59471131	     -9.88247210	     75.63242573	     45.18384401	      0.00000000	      0.00000000	    -12.15441130	     -5.95799126	      5.76399396	     24.07590680	     44.41595679	      0.00000000	      0.00000000
